<svg width="619" height="331" viewBox="0 0 619 331" fill="none" xmlns="http://www.w3.org/2000/svg">
<path d="M227.207 270.436H189.094V218.883H55.1129V270.436H17V165.427C17 150.098 19.6386 135.989 24.9157 123.101C30.1929 110.213 37.5223 99.1307 46.9039 89.8551C56.2856 80.5795 67.3774 73.3543 80.1794 68.1795C92.9814 63.0047 106.956 60.4173 122.104 60.4173H208.004C210.643 60.4173 213.135 60.9055 215.48 61.8819C217.826 62.8583 219.878 64.2252 221.637 65.9827C223.396 67.7402 224.764 69.7906 225.741 72.1339C226.719 74.4772 227.207 76.9669 227.207 79.6032V270.436ZM55.1129 180.805H189.094V98.4961H122.104C120.931 98.4961 118.439 98.6913 114.628 99.0819C110.914 99.3748 106.565 100.205 101.581 101.572C96.695 102.939 91.5155 105.038 86.0429 107.869C80.5703 110.701 75.5375 114.606 70.9444 119.586C66.3513 124.565 62.54 130.814 59.5105 138.332C56.5787 145.753 55.1129 154.784 55.1129 165.427V180.805Z" fill="#F9F9F9"/>
<path d="M337.705 305H299.446V26H337.705V305Z" fill="#F9F9F9"/>
<path d="M603 270.436H429.147C426.41 270.436 423.87 269.948 421.524 268.972C419.179 267.995 417.126 266.677 415.367 265.017C413.706 263.26 412.387 261.209 411.41 258.866C410.432 256.523 409.944 253.984 409.944 251.25V60.4173H448.057V232.357H603V270.436Z" fill="#F9F9F9"/>
</svg>
